<svg xmlns="http://www.w3.org/2000/svg" shape-rendering="geometricPrecision" text-rendering="geometricPrecision" image-rendering="optimizeQuality" fill-rule="evenodd" clip-rule="evenodd" viewBox="0 0 419 511.593"><defs><linearGradient id="prefix__a" gradientUnits="userSpaceOnUse" x1="261.798" y1="334.245" x2="213.229" y2="513.405"><stop offset="0" stop-color="#219ADF"/><stop offset="1" stop-color="#25B1FF"/></linearGradient></defs><path fill="#219ADF" fill-rule="nonzero" d="M209.5 0c57.844 0 110.224 23.457 148.133 61.366C395.543 99.276 419 151.656 419 209.5c0 57.845-23.457 110.224-61.367 148.134C319.724 395.543 267.344 419 209.5 419c-57.839 0-110.224-23.457-148.134-61.366C23.457 319.724 0 267.339 0 209.5 0 151.656 23.457 99.276 61.366 61.366 99.276 23.457 151.655 0 209.5 0z"/><path fill="#25B1FF" d="M209.501 20.597c104.328 0 188.903 84.574 188.903 188.904 0 104.328-84.575 188.903-188.903 188.903-104.331 0-188.904-84.575-188.904-188.903 0-104.33 84.573-188.904 188.904-188.904z"/><path fill="#fff" d="M209.501 35.021c96.362 0 174.479 78.116 174.479 174.48 0 96.362-78.117 174.48-174.479 174.48-96.364 0-174.48-78.118-174.48-174.48 0-96.364 78.116-174.48 174.48-174.48z"/><path fill="#219ADF" fill-rule="nonzero" d="M218.412 88.476v27.184l18.466-17.525 12.553 13.193-31.019 29.443v39.384l34.446-19.888 9.906-41.243 17.703 4.273-5.864 24.417 23.337-13.475 9.127 15.814-23.543 13.593 24.409 7.226-5.149 17.469-41.008-12.141-34.016 19.64 34.354 19.836 40.671-12.042 5.15 17.469-24.072 7.126 23.333 13.474-9.126 15.814-23.545-13.594 5.944 24.753-17.704 4.273-9.99-41.58-34.362-19.839v39.575l31.02 29.443-12.554 13.192-18.466-17.525-.001 27.393h-18.259v-27.149l-18.208 17.286-12.553-13.192 30.761-29.202V211.78l-33.93 19.594-9.99 41.579-17.703-4.273 5.943-24.753-23.718 13.693-9.133-15.81 23.513-13.579-24.072-7.125 5.15-17.469 40.671 12.041 34.354-19.835-34.016-19.64-41.008 12.14-5.149-17.469 24.409-7.225-23.722-13.698 9.132-15.814 23.511 13.579-5.864-24.417 17.704-4.272 9.905 41.243 34.013 19.636v-39.375l-30.761-29.201 12.553-13.193 18.208 17.286V88.476z"/><path fill="url(#prefix__a)" fill-rule="nonzero" d="M55.629 317.483h307.736c15.277 0 25.906 12.348 27.944 27.944l21.247 138.222c0 15.276-12.668 27.944-27.944 27.944H34.382c-15.326 0-27.937-12.618-27.937-27.944l21.246-138.222c3.493-16.268 13.357-27.938 27.938-27.944z"/><path fill="#fff" d="M56.823 331.997h305.356c8.056 0 13.488 7.132 14.668 14.667l21.25 135.756c1.18 7.545-7.017 14.668-14.668 14.668H35.583c-7.652 0-15.915-6.693-14.668-14.668l21.24-135.756c1.248-7.975 6.627-14.667 14.668-14.667z"/><path fill="#333" fill-rule="nonzero" d="M148.733 381.92v18.31h-13.464v-42.071h13.464v17.165h.268c.09-1.348.315-2.423.675-3.232l6.595-13.933h14.541l-10.098 20.666 10.434 21.405h-14.539l-6.933-15.078c-.36-.809-.585-1.884-.675-3.232h-.268zm53.885 2.423h-13.462v5.117h16.491v10.77h-29.955v-42.071h29.619l-1.683 10.771h-14.472v5.653h13.462v9.76zm36.181 0h-13.462v5.117h16.491v10.77h-29.955v-42.071h29.619l-1.684 10.771h-14.471v5.653h13.462v9.76zm31.469 5.723h-8.75v10.164h-13.464v-42.071h21.204c9.649 0 14.474 5.182 14.474 15.549 0 5.699-1.258 9.917-3.771 12.655-.942 1.031-2.244 1.908-3.904 2.626-1.66.717-3.59 1.077-5.789 1.077zm-8.75-21.136v10.366h3.094c1.617 0 2.796-.169 3.535-.505.742-.338 1.111-1.111 1.111-2.324v-4.711c0-1.213-.369-1.986-1.111-2.322-.739-.338-1.918-.504-3.535-.504h-3.094z"/><path fill-rule="nonzero" d="M104.65 451.643H91.379v18.11H75.768v-48.787h32.006l-1.952 12.49H91.379v6.557h13.271v11.63zm50.932 18.11H138.41l-6.399-14.52h-3.359v14.52h-15.611v-48.787h24.589c11.188 0 16.783 5.699 16.783 17.095 0 7.806-2.421 12.959-7.26 15.457l8.429 16.235zm-26.93-36.297v9.758h3.593c1.872 0 3.24-.196 4.097-.587.858-.389 1.288-1.288 1.288-2.692v-3.201c0-1.406-.43-2.302-1.288-2.693-.857-.389-2.225-.585-4.097-.585h-3.593zm30.639 11.942c0-8.898 1.664-15.389 4.996-19.475 3.332-4.085 9.34-6.127 18.032-6.127 8.69 0 14.701 2.042 18.03 6.127 3.332 4.086 4.996 10.577 4.996 19.475 0 4.424-.35 8.144-1.053 11.164-.703 3.017-1.913 5.646-3.631 7.883-1.715 2.237-4.083 3.878-7.103 4.916-3.017 1.042-6.764 1.563-11.239 1.563-4.476 0-8.223-.521-11.241-1.563-3.017-1.038-5.385-2.679-7.103-4.916-1.717-2.237-2.928-4.866-3.631-7.883-.7-3.02-1.053-6.74-1.053-11.164zm16.783-8.117v20.296h6.48c2.133 0 3.682-.249 4.643-.742.964-.496 1.445-1.626 1.445-3.397v-20.293h-6.557c-2.083 0-3.604.246-4.566.741-.964.493-1.445 1.626-1.445 3.395zm75.442 32.472h-42.073v-9.758l19.982-26.07-.235-.469h-16.392l-1.406-12.49h39.812v9.758l-19.75 26.072.235.466h19.827v12.491zm37.662-18.422h-15.612v5.931h19.124v12.491h-34.736v-48.787h34.347l-1.952 12.49h-16.783v6.557h15.612v11.318zm39.379 18.422l-11.942-17.329c-.415-.573-.676-1.822-.78-3.747h-.314v21.076h-15.612v-48.787h14.677l11.942 17.329c.417.573.676 1.822.78 3.747h.314v-21.076h15.611v48.787h-14.676z"/></svg>